<svg width="809" height="202" viewBox="0 0 809 202" fill="none" xmlns="http://www.w3.org/2000/svg">
<g clip-path="url(#clip0_726_13543)">
<path d="M801.038 385.817H7.9847M801.038 385.817H1276.87M801.038 385.817L752.256 318.157L714.287 265.497L683.9 223.347L659.021 188.853L638.289 160.089L620.748 135.75L605.706 114.885L592.657 96.7863L581.234 80.9443L571.152 66.9605L562.189 54.5476L554.18 43.4404L546.965 33.4399L540.44 24.3902L534.505 16.1594L529.078 8.63627L524.119 1.7554L519.545 -4.595H297.018L292.323 1.7554L287.221 8.63627L281.652 16.1594L275.554 24.3902L268.846 33.4399L261.448 43.4404L253.216 54.5476L244.029 66.9605L233.683 80.9443L221.955 96.7863L208.56 114.885L193.112 135.75L175.083 160.089L153.782 188.853L128.232 223.347L97.0321 265.497L58.0473 318.157L7.96437 385.817H-467.863M1276.84 385.817L1168.75 318.157H891.081L837.726 265.497L795.021 223.347L760.061 188.853L730.914 160.089L706.258 135.75L685.119 114.885L666.786 96.7863L650.749 80.9443L636.581 66.9605L623.999 54.5476L612.739 43.4404L602.597 33.4399H213.235L202.91 43.4404L191.425 54.5476L178.6 66.9605L164.168 80.9443L147.827 96.7863L129.147 114.885L107.602 135.75L82.4586 160.089L52.7626 188.853L17.1313 223.347L-26.3864 265.497L-80.7579 318.157H-358.429L-467.843 385.817M1017.28 223.347H-205.111M1118.26 385.817L1029.95 318.157L961.205 265.497M961.205 265.497H-149.805M961.205 265.497H1084.64L1168.77 318.157M961.205 265.497L906.183 223.347L861.141 188.853L823.599 160.089L791.83 135.75M-149.805 265.497L-219.563 318.157L-309.2 385.817M-149.805 265.497L-93.9697 223.347L-48.2569 188.853L-10.146 160.089L22.1111 135.75M-149.805 265.497H-273.243M-149.297 188.853H962.181M-149.297 188.853L-102.791 160.089L-63.4199 135.75H22.1111M-149.297 188.853L-205.091 223.347L-273.243 265.497M791.83 135.75H22.1111M791.83 135.75H877.361L916.244 160.089M791.83 135.75L764.594 114.885L740.975 96.7863L720.304 80.9443L702.071 66.9605L685.851 54.5476L671.339 43.4404L658.269 33.4399H602.637L593.47 24.3902L585.137 16.1594L577.514 8.63627L570.543 1.7554H246.021L238.906 8.63627L231.142 16.1594L222.646 24.3902L213.296 33.4399H157.664L144.412 43.4404L129.675 54.5476L113.212 66.9605L94.6948 80.9443L73.7184 96.7863L49.7544 114.885L22.1111 135.75M-273.243 265.497L-358.388 318.157M916.244 160.089H-102.771M916.244 160.089L962.201 188.853L1017.32 223.347L1084.66 265.497M959.681 385.817L891.122 318.157H-80.7173L-150.577 385.817M-29.6588 114.863H844.006M-0.409868 96.7641H815.103M789.798 80.9221H25.2007M341.572 -4.6393L338.727 1.71111L335.637 8.59198L332.263 16.1151L328.584 24.3459L324.519 33.3956L320.027 43.3966L315.047 54.5033L309.478 66.9162L303.217 80.9L296.124 96.742L288.014 114.841L278.664 135.706L267.749 160.045L254.862 188.808L239.394 223.302L220.511 265.452L196.913 318.112L166.587 385.774M47.7419 66.9162H767.419M386.025 -4.66145L385.029 1.68896L383.952 8.56983L382.773 16.093L381.492 24.3238L380.09 33.3735L378.525 43.3745L376.797 54.4812L374.866 66.8941L372.691 80.8778L370.232 96.7198L367.406 114.819L364.154 135.684L360.353 160.022L355.882 188.786L350.495 223.28L343.93 265.43L335.718 318.09L325.169 385.751M747.56 54.4812H67.8239M747.56 54.4812L767.398 66.8941L789.716 80.8778L815.022 96.7198L843.925 114.819L877.28 135.684M747.56 54.4812L729.796 43.3745L713.799 33.3735H658.167L646.358 24.3238L635.606 16.093L625.788 8.56983H190.429L180.47 16.093L169.555 24.3238L157.562 33.3735H101.931L85.7513 43.3745L67.7834 54.4812L47.7015 66.8941L25.0992 80.8778L-0.511591 96.7198L-29.7603 114.819L-63.5013 135.684M729.816 43.3745H85.8124M674.204 8.56983L663.188 1.68896L653.066 -4.66145H564.059M674.204 8.56983L686.217 16.093L699.368 24.3238L713.84 33.3735M674.204 8.56983H625.829L616.824 1.68896H570.461L564.038 -4.66145H519.525M699.327 24.3016H116.586M116.586 24.3016L101.951 33.3513M116.586 24.3016L129.899 16.0708M686.176 16.0708H129.899M129.899 16.0708L142.054 8.54822M296.957 -4.68359H207.95M207.95 -4.68359L199.556 1.66681L190.429 8.54822H142.054M207.95 -4.68359H163.437L153.192 1.66681M142.054 8.54822L153.192 1.66681M252.464 -4.68359L245.919 1.66681H153.192M608.511 -4.68359L616.784 1.66681H663.147M642.354 385.751L613.349 318.09L590.767 265.43L572.697 223.28L557.9 188.786L545.562 160.022L535.135 135.684L526.192 114.819L518.427 96.7198L511.639 80.8778L505.642 66.8941L500.317 54.4812L495.561 43.3745L491.272 33.3735L487.39 24.3238L483.853 16.093L480.621 8.56983L477.674 1.68896L474.95 -4.66145M430.437 -4.66145L431.311 1.68896L432.246 8.56983L433.282 16.093L434.4 24.3238L435.64 33.3735L437.002 43.3745L438.526 54.4812L440.214 66.8941L442.124 80.8778L444.279 96.7198L446.738 114.819L449.584 135.684L452.897 160.022L456.82 188.786L461.535 223.28L467.287 265.43L474.463 318.09L483.691 385.751" stroke="url(#paint0_linear_726_13543)" stroke-width="0.799432" stroke-linecap="round" stroke-linejoin="round"/>
</g>
<defs>
<linearGradient id="paint0_linear_726_13543" x1="-3.99905" y1="190.567" x2="1276.87" y2="190.567" gradientUnits="userSpaceOnUse">
<stop stop-color="#51506B" stop-opacity="0"/>
<stop offset="1" stop-color="#51506B"/>
</linearGradient>
<clipPath id="clip0_726_13543">
<rect width="809" height="361.766" fill="white" transform="translate(0 -1)"/>
</clipPath>
</defs>
</svg>