<svg width="42" height="45" viewBox="0 0 42 45" fill="none" xmlns="http://www.w3.org/2000/svg">
<path fill-rule="evenodd" clip-rule="evenodd" d="M37.2466 8.193L25.5466 1.5916C24.158 0.811255 22.592 0.401367 20.9992 0.401367C19.4064 0.401367 17.8404 0.811255 16.4518 1.5916L4.75182 8.1956C3.37797 8.96061 2.23231 10.0772 1.4323 11.431C0.632286 12.7848 0.206714 14.3269 0.199219 15.8994V29.097C0.205793 30.6703 0.630929 32.2136 1.43099 33.5684C2.23105 34.9231 3.37721 36.0406 4.75182 36.806L16.4518 43.4074C19.265 44.9934 22.7334 44.9934 25.5466 43.4074L37.2466 36.8034C38.6201 36.0386 39.7655 34.9224 40.5655 33.5691C41.3655 32.2159 41.7913 30.6742 41.7992 29.1022V15.902C41.7926 14.3287 41.3675 12.7854 40.5675 11.4306C39.7674 10.0759 38.6212 8.95844 37.2466 8.193ZM18.4018 4.8988C19.195 4.45329 20.0895 4.21929 20.9992 4.21929C21.909 4.21929 22.8034 4.45329 23.5966 4.8988L35.2966 11.5002C35.4994 11.6146 35.6918 11.7403 35.8738 11.8772L22.0392 18.8426C21.6613 19.0357 21.2426 19.1353 20.8182 19.1331C20.3939 19.1308 19.9762 19.0267 19.6004 18.8296L6.09602 11.898C6.28495 11.7507 6.48689 11.6172 6.70182 11.4976L18.3992 4.8936L18.4018 4.8988ZM4.14602 15.2208C4.11551 15.4466 4.09988 15.6742 4.09922 15.902V29.0996C4.09922 30.917 5.08982 32.5966 6.69922 33.504L18.3992 40.108C18.5518 40.1912 18.706 40.2675 18.862 40.3368V24.2948C18.8582 23.8325 18.7287 23.3799 18.4873 22.9855C18.246 22.5912 17.9018 22.2699 17.4918 22.0562L4.14602 15.2208ZM22.762 40.485C23.0498 40.3845 23.3279 40.2579 23.5966 40.1054L35.2966 33.504C36.082 33.0665 36.7368 32.4281 37.1942 31.6541C37.6515 30.8802 37.8948 29.9986 37.8992 29.0996V15.902C37.8992 15.668 37.8828 15.4357 37.8498 15.2052L24.166 22.0614C23.7466 22.2721 23.3935 22.5946 23.1458 22.9933C22.898 23.392 22.7652 23.8514 22.762 24.3208V40.485Z" fill="#507EF5"/>
</svg>
